<svg width="17" height="17" viewBox="0 0 17 17" fill="none" xmlns="http://www.w3.org/2000/svg">
<path d="M10.2533 8.00003L16.7333 1.52003C16.8789 1.34998 16.955 1.13125 16.9464 0.907537C16.9377 0.683825 16.845 0.471612 16.6867 0.313306C16.5284 0.155 16.3162 0.0622596 16.0924 0.0536185C15.8687 0.0449775 15.65 0.121072 15.48 0.266696L8.99995 6.7467L2.51995 0.257807C2.3499 0.112183 2.13117 0.0360893 1.90746 0.0447303C1.68375 0.0533713 1.47153 0.146111 1.31323 0.304417C1.15492 0.462723 1.06218 0.674936 1.05354 0.898648C1.0449 1.12236 1.12099 1.34109 1.26662 1.51114L7.74662 8.00003L1.25773 14.48C1.16468 14.5597 1.0891 14.6578 1.03575 14.7681C0.982395 14.8783 0.952412 14.9985 0.947684 15.1209C0.942955 15.2433 0.963583 15.3654 1.00827 15.4794C1.05296 15.5935 1.12075 15.6971 1.20737 15.7837C1.294 15.8703 1.3976 15.9381 1.51166 15.9828C1.62573 16.0275 1.7478 16.0481 1.87022 16.0434C1.99264 16.0387 2.11275 16.0087 2.22303 15.9553C2.33331 15.902 2.43137 15.8264 2.51106 15.7334L8.99995 9.25336L15.48 15.7334C15.65 15.879 15.8687 15.9551 16.0924 15.9464C16.3162 15.9378 16.5284 15.8451 16.6867 15.6868C16.845 15.5284 16.9377 15.3162 16.9464 15.0925C16.955 14.8688 16.8789 14.6501 16.7333 14.48L10.2533 8.00003Z" fill="#1C2A39"/>
</svg>
